<svg width="32" height="36" viewBox="0 0 32 36" fill="none" xmlns="http://www.w3.org/2000/svg">
<g clip-path="url(#clip0_1_30)">
<path fill-rule="evenodd" clip-rule="evenodd" d="M19.278 12.5682C20.4433 12.0301 21.9261 11.2379 23.4107 10.1525C23.7237 10.7545 23.758 11.2799 23.5967 11.7041C23.4825 12.003 23.2671 12.263 22.9839 12.4699C22.6772 12.6935 22.2943 12.8563 21.8709 12.9442C21.0676 13.1118 20.1297 13.014 19.278 12.5682ZM19.48 18.0823L21.0226 18.9076C17.8729 20.5426 17.0167 23.5785 15.9995 26.5355C14.9825 23.5785 14.1261 20.5426 10.9765 18.9076L12.5191 18.0823C12.6684 18.0301 12.7959 17.9355 12.8835 17.812C12.9711 17.6885 13.0143 17.5425 13.0068 17.3949C12.8654 14.6256 13.6728 13.401 14.7618 12.6321C15.1524 12.3567 15.5788 12.2184 15.9995 12.2184C16.4202 12.2184 16.8466 12.3567 17.2374 12.6321C18.3264 13.401 19.1337 14.6256 18.9924 17.3949C18.9849 17.5425 19.0281 17.6885 19.1157 17.812C19.2033 17.9355 19.3308 18.0301 19.48 18.0823ZM15.9995 6.10352e-05C17.7826 0.0443988 19.5702 0.364995 21.1216 0.988664C22.1958 1.4211 23.1983 1.99232 24.1059 2.67538C24.5158 2.98375 24.8534 3.28164 25.2252 3.62459C26.228 3.65669 27.6935 2.62493 28.3739 1.65949C27.203 5.21475 21.8597 9.41319 18.1605 11.0197C18.159 11.0191 18.158 11.0183 18.1569 11.0176C17.493 10.5481 16.7463 10.3134 15.9995 10.3134C15.2527 10.3134 14.5062 10.5481 13.8423 11.0176C13.8412 11.0182 13.8402 11.0192 13.8386 11.0197C10.1393 9.41319 4.79623 5.21475 3.62531 1.65949C4.30556 2.62493 5.77108 3.65669 6.77388 3.62459C7.14581 3.28176 7.48334 2.98375 7.89312 2.67538C8.8008 1.99232 9.80321 1.4211 10.8775 0.988664C12.429 0.364995 14.2165 0.0443988 15.9995 6.10352e-05ZM12.7211 12.5682C11.5558 12.0301 10.0729 11.2379 8.58848 10.1525C8.27546 10.7545 8.24118 11.2799 8.40232 11.7041C8.51673 12.003 8.7321 12.263 9.01515 12.4699C9.32194 12.6935 9.70492 12.8563 10.1283 12.9442C10.9316 13.1118 11.8694 13.014 12.7211 12.5682Z" fill="white"/>
<path fill-rule="evenodd" clip-rule="evenodd" d="M25.037 8.82221C25.8543 8.05836 26.5744 7.21288 27.1535 6.45844L27.4476 6.97108C28.3944 8.72542 28.8863 10.4727 28.8863 12.4391L28.8843 15.5594L28.9021 17.177C28.9706 21.1481 29.8984 25.1659 32 28.8428L27.6029 25.559L24.4917 30.2349L21.2231 27.3852L16 35.2353L10.7769 27.3853L7.50841 30.235L4.39718 25.5591L-3.05176e-05 28.8429C2.10156 25.166 3.0293 21.1482 3.098 17.1771L3.11578 15.5596L3.11375 12.4392C3.11375 10.4727 3.60556 8.72542 4.5526 6.9712L4.84657 6.45855C5.42562 7.213 6.14562 8.05836 6.96302 8.82233L6.70778 9.31334C6.21191 10.267 6.04772 11.3334 6.434 12.3475C6.68302 13.0007 7.13749 13.5608 7.7234 13.9884C8.29229 14.4037 8.96556 14.6836 9.67045 14.8306C10.1296 14.9264 10.5974 14.9658 11.0622 14.9524C10.9537 15.5217 10.9064 16.1122 10.9033 16.7139L6.75553 18.9326L9.95629 20.5943C10.2121 20.7271 10.4557 20.8793 10.6844 21.0493C13.3233 23.2436 14.9098 29.7352 16.0001 32.906C17.0905 29.7352 18.6769 23.2436 21.3159 21.0493C21.5446 20.8793 21.7882 20.7271 22.044 20.5943L25.2448 18.9326L21.0969 16.7139C21.0938 16.1122 21.0464 15.5217 20.938 14.9524C21.4028 14.9658 21.8706 14.9264 22.3297 14.8306C23.0346 14.6836 23.708 14.4037 24.2768 13.9884C24.8626 13.5608 25.3172 13.0007 25.5661 12.3475C25.9525 11.3334 25.7882 10.2671 25.2924 9.31334L25.037 8.82221Z" fill="white"/>
</g>
<defs>
<clipPath id="clip0_1_30">
<rect width="32" height="35.2821" fill="white"/>
</clipPath>
</defs>
</svg>
