<svg width="50" height="32" viewBox="0 0 50 32" fill="none" xmlns="http://www.w3.org/2000/svg">
<path d="M49.5265 8.74768C49.3936 8.98533 49.2811 9.23753 49.1239 9.45869C48.6545 10.1173 48.0084 10.4015 47.2024 10.3113C47.1384 10.3045 47.0714 10.2997 47.0142 10.2754C46.2023 9.93786 46.0917 9.17157 45.9501 8.45378C45.8395 7.89507 46.0859 7.41686 46.5952 7.16952C47.021 6.96194 47.4924 6.77473 47.9561 6.73496C48.7078 6.67094 49.2258 7.0958 49.5274 7.77964L49.5265 8.74768Z" fill="white"/>
<path d="M34.3802 13.7296C34.8584 13.5967 35.292 13.488 35.7179 13.3571C38.2874 12.5656 40.7337 11.4928 43.0539 10.1328C43.179 10.0591 43.3032 9.98249 43.4341 9.92041C43.7765 9.75843 44.0694 9.84087 44.2858 10.1406C44.4991 10.4364 44.4429 10.7352 44.1839 10.9661C43.6427 11.4481 43.1004 11.9331 42.5291 12.3784C39.98 14.3649 37.2 15.9489 34.1688 17.078C33.8749 17.1876 33.7391 17.3583 33.6605 17.6502C32.5043 21.9327 30.3189 25.6662 27.5263 29.0689C27.0161 29.6917 26.4875 30.3057 25.9142 30.8692C23.9344 32.8111 20.7306 32.1632 19.6607 29.6044C17.3977 24.1909 14.09 19.5107 9.77651 15.5454C7.01883 13.0098 3.94009 10.9253 0.599456 9.22881C0.513127 9.18516 0.390908 9.16285 0.347259 9.09204C0.207581 8.86313 -0.000966616 8.61578 3.37147e-06 8.37522C3.37147e-06 8.02991 0.308459 7.84076 0.650865 7.87471C1.24159 7.93388 1.83716 8.00275 2.41527 8.13273C6.41841 9.03191 10.0646 10.7381 13.4266 13.068C17.3482 15.785 20.5686 19.1799 23.1342 23.1995C23.2293 23.3489 23.3272 23.4973 23.4281 23.6428C23.4543 23.6807 23.497 23.7078 23.5872 23.7903C24.7948 22.184 25.7852 20.47 26.7154 18.5785C26.3196 18.5261 26.0141 18.4757 25.7056 18.4456C21.3426 18.0315 18.0495 15.9896 16.2696 11.9225C14.9436 8.89126 15.5848 6.03562 17.6392 3.50686C19.1388 1.66194 21.0943 0.481466 23.4446 0.122571C26.6912 -0.374063 29.4265 0.634724 31.5197 3.2178C33.1474 5.22568 33.9166 7.58566 34.228 10.1037C34.355 11.1358 34.3094 12.1892 34.3444 13.232C34.3492 13.3726 34.3628 13.5132 34.3764 13.7296H34.3802ZM28.5787 11.324C28.507 9.82924 28.2848 8.3888 27.6107 7.04828C26.7028 5.24217 25.08 4.62234 23.1934 5.35565C22.042 5.80282 20.5899 7.15013 20.7839 8.96304C20.9721 10.7216 21.8713 12.0738 23.2894 13.0865C24.6338 14.0458 26.1955 14.3581 27.7989 14.524C28.1132 14.557 28.1752 14.3309 28.2072 14.0962C28.3353 13.1728 28.4565 12.2484 28.5797 11.324H28.5787Z" fill="white"/>
</svg>
